Coordinates
version=1
nRows=22
nColumns=24
inDegrees=yes

Units are S.I. units (second, meters, Newtons, ...)
Angles are in degrees.

endheader
time	pelvis_tilt	pelvis_list	pelvis_rotation	pelvis_tx	pelvis_ty	pelvis_tz	hip_flexion_r	hip_adduction_r	hip_rotation_r	knee_angle_r	ankle_angle_r	subtalar_angle_r	mtp_angle_r	hip_flexion_l	hip_adduction_l	hip_rotation_l	knee_angle_l	ankle_angle_l	subtalar_angle_l	mtp_angle_l	lumbar_extension	lumbar_bending	lumbar_rotation
      4.16000000	     -0.61653533	      4.27315596	     -4.33937737	      0.80404103	      0.70144261	     -0.21401800	     19.27734153	     -1.20440239	      0.38193166	    -64.50358726	     12.91277271	     -6.59112281	      0.00000000	     -1.99051187	     11.51385402	     26.08189872	     -5.86155516	      3.95972009	    -30.93894907	      0.00000000	    -10.51359058	     -7.36396304	     -0.92725670
      4.17000000	     -0.82186057	      3.80560303	     -3.65884728	      0.81712099	      0.70207124	     -0.21337839	     21.19653171	     -0.65005885	     -0.31206299	    -63.38574236	     14.36197741	     -7.41380880	      0.00000000	     -4.07156616	     10.49414695	     27.30756451	     -3.85896973	      2.78695825	    -32.32898469	      0.00000000	    -10.58910570	     -6.82215477	     -1.61696434
      4.18000000	     -1.11267794	      3.45656642	     -2.86348836	      0.83006903	      0.70224338	     -0.21277932	     23.13995871	     -0.26306816	     -0.99195602	    -61.96137536	     15.56032655	     -7.86662175	      0.00000000	     -5.88337319	      9.59233828	     27.96657341	     -2.10373581	      2.33504674	    -32.56240573	      0.00000000	    -10.60894014	     -6.43503819	     -2.44456139
      4.19000000	     -1.25642048	      3.15320588	     -2.10981299	      0.84304078	      0.70221100	     -0.21220042	     24.80455033	      0.04773680	     -1.50908792	    -60.18405032	     16.69623040	     -7.71174033	      0.00000000	     -7.80715805	      8.74014083	     28.48227782	     -0.39108949	      1.71273123	    -32.96144128	      0.00000000	    -10.82684665	     -6.08677612	     -3.22535571
      4.20000000	     -1.51179547	      2.92801046	     -1.45738641	      0.85604185	      0.70172504	     -0.21156160	     26.48040633	      0.31471337	     -1.76752889	    -58.05162046	     17.62582077	     -7.26907189	      0.00000000	     -9.48205771	      8.02228312	     28.57169860	      1.09889157	      1.43960260	    -32.78585797	      0.00000000	    -10.87953060	     -5.82645847	     -3.80479643
      4.21000000	     -1.74421208	      2.71063970	     -0.78293830	      0.86905251	      0.70099948	     -0.21102975	     27.96455947	      0.54065710	     -1.91037231	    -55.51579743	     18.34046708	     -6.58679347	      0.00000000	    -11.06537354	      7.35347046	     28.60850587	      2.37373060	      1.25066455	    -32.57707969	      0.00000000	    -10.99292975	     -5.55029920	     -4.50962090
      4.22000000	     -1.63537169	      2.44031941	     -0.00018100	      0.88197574	      0.70050991	     -0.21066788	     28.82278407	      0.76774047	     -1.99581290	    -52.43563189	     18.89789237	     -5.95720177	      0.00000000	    -12.88656691	      6.61871247	     28.92189416	      3.41637844	      1.03942591	    -32.50568718	      0.00000000	    -11.64300012	     -5.17060040	     -5.42817348
      4.23000000	     -1.95731106	      2.26410687	      0.52084975	      0.89504035	      0.69925687	     -0.21014772	     30.01366496	      1.01142037	     -1.60900376	    -49.01601321	     19.27193062	     -5.17072810	      0.00000000	    -14.09973635	      6.10911136	     28.86508752	      4.16843318	      0.97278099	    -32.28840079	      0.00000000	    -11.65098768	     -4.92252793	     -5.93223894
      4.24000000	     -1.84208083	      1.94570013	      1.22133966	      0.90810739	      0.69847759	     -0.20978605	     30.38212892	      1.31667528	     -1.27662462	    -44.95190551	     19.37841357	     -4.82650996	      0.00000000	    -15.68179570	      5.36939565	     29.19112068	      4.74723204	      1.01133268	    -32.00064079	      0.00000000	    -12.31185399	     -4.45194070	     -6.62352399
      4.25000000	     -1.94961956	      1.70507100	      1.72420368	      0.92132845	      0.69722356	     -0.20932645	     30.78483096	      1.61402087	     -0.52100129	    -40.51216570	     19.27934113	     -4.57920309	      0.00000000	    -16.91733721	      4.81350584	     29.29379220	      5.09908889	      1.05988901	    -31.72996897	      0.00000000	    -12.62716523	     -4.07616777	     -7.05918035
      4.26000000	     -2.01365551	      1.50800004	      2.20425985	      0.93464661	      0.69588076	     -0.20890883	     30.87755288	      1.84854872	      0.50119242	    -35.67766455	     18.87424272	     -4.64655434	      0.00000000	    -18.10445836	      4.33079290	     29.39926391	      5.25500946	      1.16097697	    -31.37295135	      0.00000000	    -13.01251390	     -3.72388154	     -7.48436164
      4.27000000	     -2.30395912	      1.37072268	      2.69190923	      0.94825859	      0.69408608	     -0.20861624	     30.98046357	      1.93493168	      1.67913629	    -30.59463288	     18.17108081	     -4.97192805	      0.00000000	    -18.98427361	      3.93290747	     29.60050525	      5.24486842	      1.31955886	    -30.98575138	      0.00000000	    -13.03527992	     -3.41422752	     -7.87697000
      4.28000000	     -2.39417956	      1.33658156	      3.13119772	      0.96206419	      0.69236395	     -0.20824079	     30.65062606	      1.90187981	      3.14905398	    -25.34902553	     17.01351280	     -5.89846592	      0.00000000	    -20.04774146	      3.63188571	     29.77254058	      5.12911488	      1.46620775	    -30.36258373	      0.00000000	    -13.31997844	     -3.22630065	     -8.28329682
      4.29000000	     -2.13345143	      1.23354362	      3.34548254	      0.97645669	      0.69074425	     -0.20776158	     29.76837675	      1.95480329	      4.83376522	    -20.13090041	     15.57418580	     -7.04594759	      0.00000000	    -21.59702920	      3.29457051	     29.48480589	      5.11804423	      1.68657517	    -29.42596410	      0.00000000	    -13.90016550	     -2.89796250	     -8.41535931
      4.30000000	     -2.13958381	      1.38062196	      3.67175347	      0.99103996	      0.68867445	     -0.20756149	     29.17397479	      1.58430345	      6.22878340	    -15.32602962	     14.04217961	     -8.24464384	      0.00000000	    -22.73723241	      3.23340972	     29.45210740	      4.81914274	      1.88378935	    -28.34564192	      0.00000000	    -14.11957224	     -2.83601811	     -8.77446916
      4.31000000	     -2.18820175	      1.62328661	      3.93601484	      1.00605542	      0.68638884	     -0.20737965	     28.67614434	      1.09098208	      7.10053568	    -11.13481082	     12.72952694	     -9.03547409	      0.00000000	    -23.81469217	      3.29697865	     29.35278605	      4.41318411	      2.01111281	    -27.06675142	      0.00000000	    -14.19190450	     -2.87210816	     -9.12074132
      4.32000000	     -2.22467174	      1.88882925	      4.06107639	      1.02145337	      0.68403660	     -0.20714682	     28.26382655	      0.65897003	      7.43853514	     -7.73460980	     11.79868797	     -9.16918181	      0.00000000	    -24.82009126	      3.47459368	     29.10420398	      3.77866892	      2.07267426	    -25.64468469	      0.00000000	    -14.19522625	     -2.90173487	     -9.40521712
      4.33000000	     -2.29779777	      2.11210965	      4.13626514	      1.03721057	      0.68169879	     -0.20690542	     27.96556620	      0.36938724	      7.34677929	     -5.17579698	     11.20573491	     -8.83940685	      0.00000000	    -25.63757815	      3.68042320	     28.86349275	      2.84055223	      1.96826807	    -24.27289210	      0.00000000	    -14.08351841	     -2.84930240	     -9.69042378
      4.34000000	     -2.26138081	      2.13558061	      3.90598495	      1.05358485	      0.67951632	     -0.20625945	     27.61163695	      0.53874673	      7.34031088	     -3.47032814	     10.73452408	     -8.51940953	      0.00000000	    -26.45211970	      3.86052442	     27.91119353	      1.63329421	      1.98856601	    -22.21478068	      0.00000000	    -13.93340248	     -2.58466461	     -9.67337423
      4.35000000	     -2.28480675	      1.99182275	      3.57820586	      1.07035362	      0.67746507	     -0.20559167	     27.36748337	      0.99407591	      7.45705966	     -2.61314860	     10.21387105	     -8.40409952	      0.00000000	    -26.94044430	      4.01699454	     26.82090654	     -0.03745035	      1.84523531	    -20.13366797	      0.00000000	    -13.60499023	     -2.08042088	     -9.61887851
      4.36000000	     -2.19923899	      1.81186486	      3.09486848	      1.08724356	      0.67583722	     -0.20482098	     27.12449523	      1.62955636	      7.94927575	     -2.68408920	      9.68747223	     -8.65117137	      0.00000000	    -27.10369374	      4.36556565	     24.98079460	     -2.44956170	      1.75826302	    -17.27480980	      0.00000000	    -13.40787448	     -1.51495690	     -9.30415814
      4.37000000	     -2.12597001	      1.51392924	      2.60731670	      1.10407802	      0.67468306	     -0.20401896	     27.04265570	      2.45655777	      8.39010770	     -3.65876925	      8.87240398	     -9.12906965	      0.00000000	    -26.63414840	      4.72086982	     22.23510550	     -5.79777773	      2.00152571	    -13.19181181	      0.00000000	    -13.22354770	     -0.78647165	     -9.12285250
